<svg width="1024" height="1024" xmlns="http://www.w3.org/2000/svg" version="1.0" preserveAspectRatio="xMidYMid meet">
 <g>
  <title>Layer 1</title>
  <g fill="#ffffff" id="svg_1">
   <path d="m490,1021c-3.6,-0.4 -11.3,-0.8 -17.2,-0.9c-5.9,0 -11.9,-0.6 -13.5,-1.2c-1.5,-0.6 -6.6,-1.5 -11.3,-1.9c-12.1,-1.2 -24,-2.9 -27.4,-4c-1.6,-0.6 -4.9,-1 -7.3,-1c-2.4,0 -5.4,-0.5 -6.6,-1.2c-1.2,-0.7 -4.4,-1.5 -7.2,-1.9c-9.3,-1.4 -17,-3.1 -18,-4c-0.5,-0.5 -2.3,-0.9 -4,-0.9c-1.6,-0.1 -4.1,-0.7 -5.5,-1.5c-1.4,-0.8 -3.7,-1.4 -5.2,-1.5c-1.5,0 -3,-0.4 -3.3,-1c-0.3,-0.5 -1.6,-1 -2.8,-1c-1.2,0 -3.5,-0.7 -5.1,-1.5c-1.5,-0.8 -3.8,-1.5 -5,-1.5c-1.1,0 -3,-0.7 -4,-1.5c-1.1,-0.8 -3,-1.5 -4.2,-1.5c-1.3,0 -2.6,-0.4 -2.9,-1c-0.3,-0.5 -1.3,-1 -2.2,-1c-1.5,0 -6.5,-1.9 -11.6,-4.6c-1.6,-0.8 -3.6,-1.4 -4.5,-1.4c-0.9,0 -3.9,-1.2 -6.7,-2.5c-2.7,-1.4 -5.5,-2.5 -6.1,-2.5c-0.6,0 -1.7,-0.7 -2.4,-1.5c-0.7,-0.8 -1.9,-1.5 -2.8,-1.5c-1.8,0 -29.9,-13.7 -30.7,-15.1c-0.4,-0.5 -1.3,-0.9 -2.1,-0.9c-0.8,0 -3.1,-1.1 -5.2,-2.3c-2,-1.3 -6.4,-3.9 -9.7,-5.7c-3.3,-1.8 -7.4,-4.3 -9.2,-5.6c-1.7,-1.3 -3.5,-2.4 -3.9,-2.4c-0.4,0 -2.2,-1.1 -4,-2.5c-1.8,-1.4 -3.5,-2.5 -3.8,-2.5c-0.5,0 -14.6,-9.7 -17.1,-11.8c-0.6,-0.5 -5.5,-4.1 -11,-8.2c-5.5,-4 -10.2,-7.6 -10.5,-7.9c-0.3,-0.4 -2.5,-2.2 -5,-4.1c-2.5,-1.9 -4.7,-3.7 -5,-4c-0.3,-0.3 -5,-4.5 -10.5,-9.2c-20.3,-17.5 -43.5,-41.5 -58.9,-60.8c-6.8,-8.5 -15.1,-19.3 -16.1,-20.9c-0.5,-0.9 -3.7,-5.5 -7.1,-10.1c-3.3,-4.7 -8.3,-12.1 -11,-16.5c-2.6,-4.4 -5.4,-8.5 -6,-9.2c-0.6,-0.6 -2.3,-3.5 -3.8,-6.5c-1.5,-2.9 -3.6,-6.6 -4.6,-8.3c-2,-3.2 -17.8,-34.7 -21.5,-43c-1.3,-2.7 -3.5,-7.6 -4.9,-10.7c-1.4,-3.1 -2.6,-6.3 -2.6,-7c0,-0.8 -0.7,-2.3 -1.5,-3.4c-0.8,-1 -1.5,-2.8 -1.5,-3.9c0,-1.1 -0.6,-2.9 -1.3,-4c-0.7,-1.1 -1.9,-4 -2.6,-6.5c-0.7,-2.5 -1.9,-6 -2.7,-7.8c-0.8,-1.8 -1.4,-4.1 -1.4,-5c0,-1 -0.4,-2.2 -0.9,-2.7c-1.1,-1.3 -4.1,-10.9 -4.1,-13.2c0,-1 -0.7,-3.1 -1.5,-4.7c-0.8,-1.5 -1.5,-3.8 -1.5,-5.1c0,-1.2 -0.7,-3.9 -1.5,-5.8c-0.8,-2 -1.5,-5 -1.5,-6.6c0,-1.6 -0.5,-3.3 -1,-3.6c-0.6,-0.3 -1,-2.2 -1,-4.1c0,-1.9 -0.7,-5.1 -1.5,-7.1c-0.8,-1.9 -1.5,-5.3 -1.5,-7.5c0,-2.2 -0.5,-4.8 -1.1,-6c-1.1,-2 -2.3,-10.2 -3.8,-25.8c-0.4,-4.7 -1.3,-10.1 -1.9,-12c-3.3,-10.9 -3.3,-99.1 0,-110c0.6,-1.9 1.5,-7.5 1.9,-12.5c1.2,-13.6 2.6,-23.2 3.8,-25.4c0.6,-1.1 1.1,-3.7 1.1,-5.9c0,-2.2 0.7,-5.6 1.5,-7.5c0.8,-2 1.5,-5.1 1.5,-7c0,-1.8 0.4,-3.7 0.9,-4.2c0.5,-0.6 1.1,-2.8 1.4,-5c0.2,-2.2 0.9,-5.5 1.6,-7.2c2.8,-8.1 3.4,-10 4.1,-13.8c1.2,-5.9 3.1,-11.9 4.1,-12.9c0.5,-0.6 0.9,-1.8 0.9,-2.8c0,-0.9 0.6,-3.2 1.4,-5c0.8,-1.8 2,-5.3 2.7,-7.8c0.7,-2.5 1.9,-5.4 2.6,-6.5c0.7,-1.1 1.3,-2.7 1.3,-3.6c0,-1 0.6,-3 1.4,-4.6c0.8,-1.5 2,-4.1 2.6,-5.8c1.1,-2.8 2.4,-5.8 4.8,-11.5c2,-4.8 7.3,-16.5 8.2,-18c0.5,-0.8 2.3,-4.4 4,-8c1.7,-3.6 3.5,-7.2 4,-8c0.5,-0.8 1.9,-3.3 3,-5.5c1.1,-2.2 2.9,-5.3 4,-7c1,-1.6 3.3,-5.8 5.1,-9.3c1.8,-3.4 3.6,-6.2 4.1,-6.2c0.4,0 0.8,-0.6 0.8,-1.4c0,-0.8 0.6,-2.1 1.3,-2.8c0.7,-0.7 3.2,-4.4 5.6,-8.3c6.1,-9.7 17.8,-25.8 28.6,-39.5c21.4,-27.1 58.6,-64.2 82.6,-82.5c13.3,-10.2 26,-19.5 26.4,-19.5c0.3,0 3,-1.8 6,-4c3,-2.2 5.7,-4 6,-4c0.4,0 2.1,-1.1 3.9,-2.5c1.8,-1.4 3.5,-2.5 3.8,-2.5c0.3,0 3,-1.6 5.9,-3.6c3,-2 6.3,-4 7.4,-4.5c1.1,-0.5 4.3,-2.3 7,-3.9c7.9,-4.7 39,-20 40.7,-20c0.9,0 2.1,-0.7 2.8,-1.5c0.7,-0.8 1.8,-1.5 2.5,-1.5c0.8,0 2.8,-0.8 4.7,-1.7c6.1,-3 6.8,-3.3 8.6,-3.3c1,0 2.7,-0.7 3.8,-1.5c1,-0.8 2.6,-1.5 3.5,-1.5c0.9,0 3,-0.7 4.5,-1.5c1.6,-0.8 3.7,-1.5 4.6,-1.5c0.9,0 2,-0.4 2.3,-1c0.3,-0.5 1.8,-1 3.3,-1c1.5,0 3.6,-0.7 4.6,-1.5c1.1,-0.8 3.2,-1.5 4.6,-1.5c1.4,0 3,-0.4 3.5,-0.9c0.6,-0.5 3.7,-1.6 7,-2.5c3.3,-0.9 7.4,-2.2 9,-2.7c1.7,-0.6 4.6,-1.5 6.5,-2c1.9,-0.4 6.4,-1.6 10,-2.4c3.6,-0.9 8.8,-2 11.7,-2.5c2.8,-0.4 5.8,-1.2 6.5,-1.6c0.7,-0.5 3.6,-1.2 6.3,-1.6c7.9,-1.1 16.7,-2.8 20.1,-3.9c1.7,-0.5 6.1,-0.9 9.8,-0.9c3.7,0 9.7,-0.6 13.4,-1.4c17.3,-3.7 93.2,-4 108.2,-0.4c2.5,0.6 9,1.4 14.5,1.8c5.5,0.5 13.4,1.5 17.5,2.5c4.1,0.9 10,1.9 13,2.3c3,0.4 6.1,1.1 6.8,1.6c0.7,0.4 3.7,1.2 6.5,1.6c2.9,0.5 8.1,1.6 11.7,2.5c3.6,0.8 8.1,2 10,2.4c1.9,0.5 4.9,1.4 6.5,2c1.7,0.5 5.7,1.8 9,2.7c3.3,0.9 6.4,2 7,2.5c0.5,0.5 2.1,0.9 3.5,0.9c1.4,0 3.5,0.7 4.6,1.5c1,0.8 3.1,1.5 4.6,1.5c1.5,0 3,0.5 3.3,1c0.3,0.6 1.4,1 2.3,1c0.9,0 3,0.7 4.6,1.5c1.5,0.8 3.6,1.5 4.5,1.5c0.9,0 2.5,0.7 3.5,1.5c1.1,0.8 2.8,1.5 3.8,1.5c1,0 2.6,0.4 3.6,0.9c0.9,0.4 3.5,1.6 5.7,2.6c2.2,0.9 4.7,2.1 5.5,2.6c0.8,0.5 2.2,1.2 3,1.5c0.8,0.3 2.4,0.9 3.5,1.4c4,1.5 33.1,16.2 38,19c2.8,1.6 5.9,3.4 7,3.9c1.1,0.5 4.4,2.5 7.4,4.5c2.9,2 5.6,3.6 5.9,3.6c0.3,0 1.9,1 3.6,2.3c1.7,1.3 3.8,2.6 4.6,3c2.3,1.1 23.5,16 31.8,22.4c21.6,16.7 44.7,37.8 62.2,56.8c9.7,10.5 20.2,22.4 22.5,25.5c1.1,1.5 3.4,4.5 5.2,6.6c12.7,15.7 35.3,48.6 40.4,58.9c1.1,2.2 2.8,5.4 3.9,7c4.5,7.1 22.9,45.3 28,58c0.6,1.7 1.8,4.3 2.6,5.8c0.8,1.6 1.4,3.6 1.4,4.6c0,0.9 0.6,2.5 1.3,3.6c0.7,1.1 1.9,4 2.6,6.5c0.7,2.5 1.9,6.1 2.6,8c3.8,10.7 4.7,13.8 6.5,21c0.4,1.9 1.3,4.9 1.8,6.5c3.3,9.7 3.6,10.9 6.1,24.2c0.5,2.8 1.4,6.1 2,7.2c0.6,1.1 1.1,3.8 1.1,6.1c0,2.3 0.5,5 1.1,6.1c1.1,2.1 2.4,10.7 3.8,25.5c0.5,5 1.3,10.6 1.9,12.5c3.5,11.5 3.2,96.1 -0.4,111.5c-0.8,3.3 -1.4,8.4 -1.4,11.4c0,2.9 -0.4,6.7 -0.9,8.4c-1,3.2 -2.8,13.3 -4,22.6c-0.4,3 -1.3,6.8 -1.9,8.3c-0.7,1.6 -1.2,4.3 -1.2,6.1c0,1.7 -0.4,3.6 -0.9,4.2c-0.5,0.5 -1.1,2.7 -1.4,4.9c-0.2,2.2 -1,5.6 -1.7,7.5c-2.6,7.6 -3.2,9.7 -4,13.5c-1.2,5.9 -3.1,11.9 -4.1,13c-0.5,0.5 -0.9,1.7 -0.9,2.7c0,0.9 -0.6,3.2 -1.4,5c-0.8,1.8 -2,5.3 -2.7,7.8c-0.7,2.5 -1.9,5.4 -2.6,6.5c-0.7,1.1 -1.3,2.7 -1.3,3.6c0,1 -0.6,3 -1.4,4.6c-0.8,1.5 -2,4.2 -2.6,5.8c-1.7,4.3 -3.4,8.2 -6.5,15c-1.5,3.3 -3.4,7.6 -4.2,9.5c-0.8,1.9 -1.9,4.2 -2.3,5c-0.5,0.8 -3.6,6.9 -7,13.5c-3.4,6.6 -7,13.4 -8,15c-1,1.7 -3.3,5.7 -5.1,9c-1.7,3.3 -3.5,6.2 -3.8,6.5c-0.4,0.3 -2.9,4.1 -5.6,8.5c-5.5,9.1 -15,22.7 -24.3,34.8c-3.5,4.5 -7.6,9.9 -9.2,12c-3,4 -11,13.2 -21.9,25.2c-8.7,9.6 -25.6,25.9 -37.6,36.3c-5.5,4.7 -10.2,8.9 -10.5,9.2c-0.3,0.3 -2.5,2.1 -5,4c-2.5,1.9 -4.7,3.7 -5,4.1c-0.3,0.3 -5,3.9 -10.5,7.9c-5.5,4 -10.1,7.7 -10.3,8.2c-0.2,0.4 -0.8,0.8 -1.3,0.8c-0.5,0 -4.3,2.5 -8.4,5.5c-4,3 -7.7,5.5 -8,5.5c-0.4,0 -2.1,1.1 -3.9,2.5c-1.8,1.4 -3.6,2.5 -4,2.5c-0.4,0 -2.2,1.1 -3.9,2.4c-3.5,2.6 -13.4,8.3 -21.2,12.2c-2.7,1.3 -5.8,2.9 -6.7,3.4c-9.5,5.3 -27.5,14 -29,14c-0.9,0 -2.1,0.7 -2.8,1.5c-0.7,0.8 -1.8,1.5 -2.5,1.5c-0.8,0 -2.8,0.8 -4.7,1.7c-6,3 -6.8,3.3 -8.2,3.3c-0.8,0 -2.7,0.6 -4.3,1.4c-5.1,2.7 -10.1,4.6 -11.6,4.6c-0.9,0 -1.9,0.5 -2.2,1c-0.3,0.6 -1.6,1 -2.9,1c-1.2,0 -3.1,0.7 -4.2,1.5c-1,0.8 -2.9,1.5 -4,1.5c-1.2,0 -3.5,0.7 -5,1.5c-1.6,0.8 -3.9,1.5 -5.1,1.5c-1.2,0 -2.5,0.5 -2.8,1c-0.3,0.6 -1.7,1 -3.1,1c-1.4,0 -3.5,0.5 -4.7,1.2c-1.2,0.6 -4,1.5 -6.2,1.9c-2.2,0.5 -6.9,1.6 -10.5,2.5c-3.6,0.9 -8.7,1.9 -11.5,2.3c-2.7,0.4 -6,1.2 -7.2,1.9c-1.2,0.7 -4.2,1.2 -6.6,1.2c-2.4,0 -5.7,0.4 -7.3,1c-3.5,1.1 -15.6,2.9 -27.5,4c-4.8,0.4 -9.3,1.1 -10,1.6c-2.8,1.8 -65.1,3.8 -75.9,2.4zm-1.9,-280.5c17.8,-1.7 37.9,-4.9 40.9,-6.5c1,-0.5 2.9,-1 4.2,-1c1.3,0 4.3,-0.6 6.8,-1.4c2.5,-0.8 9.7,-3.1 16,-5.1c6.3,-2.1 14,-4.8 17,-6.1c3,-1.2 10,-4.2 15.5,-6.5c5.5,-2.3 11.1,-4.9 12.5,-5.9c1.4,-0.9 5,-3 8,-4.6c29.4,-15.5 63.6,-46.6 99.1,-90c10.8,-13.3 17.9,-22.4 22.4,-28.9c2.2,-3.1 6.1,-8.4 8.6,-11.8c9.6,-13 51.9,-77.5 51.9,-79.2c0,-0.2 2.9,-5.2 6.5,-11c8.2,-13.2 28,-48.3 35.8,-63.5c3.3,-6.3 8.3,-15.8 11.1,-21c4.8,-8.7 16,-31.2 26.8,-53.6l4.4,-9.1l-3.6,-1c-1.9,-0.6 -9.6,-3.2 -17,-5.8c-7.4,-2.6 -15.5,-5.3 -18,-6c-2.5,-0.7 -8.1,-2.5 -12.5,-3.8c-30,-9.4 -63.1,-18.7 -75.5,-21.3c-3.6,-0.8 -8.7,-2.1 -11.5,-2.9c-5.6,-1.7 -16.5,-4.2 -37,-8.4c-7.7,-1.6 -14.7,-3.2 -15.5,-3.5c-2.8,-1 -30.5,-5.5 -41,-6.6c-36.8,-3.9 -80.9,-4.9 -111.5,-2.5c-25,1.9 -39.2,3.6 -55,6.5c-12.9,2.3 -34.5,7.4 -39.5,9.3c-1.9,0.8 -7.3,2.6 -12,4.2c-9.8,3.2 -28.2,11.7 -37.3,17.1c-15.4,9.3 -36,23.5 -39.7,27.4c-0.3,0.3 -3,2.4 -6,4.7c-12.5,9.6 -41.6,41.3 -51.8,56.6c-23.8,35.5 -35.2,62.1 -43.7,102.2c-2.1,9.7 -2.7,15.8 -3.1,32c-0.6,20.1 -0.6,20.1 3.4,43.9l0.7,3.9l3,-2.5c11.4,-9.4 47.9,-29.9 73.5,-41.1c3.6,-1.6 7.2,-3.3 8.1,-3.7c0.9,-0.5 8.1,-3.4 16,-6.5c7.9,-3.1 15.3,-6 16.4,-6.5c1.1,-0.4 4,-1.5 6.5,-2.5c2.5,-1 5.4,-2.1 6.5,-2.6c3,-1.3 24.2,-8.8 30,-10.6c2.8,-0.8 6.1,-1.9 7.5,-2.5c2.5,-1 26.8,-9 32.5,-10.7c1.7,-0.5 5.7,-1.7 9,-2.6c3.3,-0.9 9.2,-2.7 13,-4c8.2,-2.7 24.5,-7.4 29.5,-8.6c1.9,-0.4 10.9,-2.8 20,-5.3c16.3,-4.6 23.2,-6.5 38.2,-10.5c4.3,-1.2 9.3,-2.1 11.3,-2.1c3.3,0 3.5,0.2 3.5,3.5c0,2.4 -0.5,3.5 -1.5,3.5c-0.8,0 -2,0.9 -2.7,2c-0.7,1.1 -1.7,2 -2.2,2c-3.5,0 -43.2,15.9 -83.1,33.2c-14.9,6.5 -21.3,9.4 -34,15.3c-10.6,4.9 -60.4,29.7 -68.5,34c-15.7,8.5 -28.5,15.5 -34,18.6c-3,1.7 -7.3,4.1 -9.5,5.4c-10.1,5.7 -12.9,7.3 -26.8,15.6c-8.1,4.9 -15.2,8.9 -15.7,8.9c-0.6,0 -1,0.3 -1,0.8c0,0.4 -1.7,1.6 -3.7,2.7c-2.1,1.1 -4,2.3 -4.3,2.6c-0.3,0.4 -3,2.1 -6,3.9c-12.2,7.4 -82.9,55.1 -88.5,59.8c-0.5,0.4 -3.7,2.8 -6.9,5.2c-3.3,2.4 -6.7,4.9 -7.5,5.6c-3.2,2.5 -38.4,28.9 -39.8,29.9c-0.9,0.6 -2.6,2 -3.9,3.3c-1.3,1.2 -2.7,2.2 -3.2,2.2c-0.6,0 -1.2,0.7 -1.6,1.5c-0.3,0.9 3.2,-0.4 9.2,-3.4c24.3,-12.2 55.1,-26.4 68.7,-31.7c4.9,-1.9 11.6,-4.7 14.8,-6c18.2,-7.9 41.6,-14.4 54.9,-15.1l10.7,-0.6l9.8,10.3c5.4,5.7 10.5,10.9 11.3,11.6c0.8,0.7 5.1,4.2 9.5,7.9c15.6,13 36.2,24.9 57,33c3.9,1.5 8.4,3.3 10,4c7,3.1 33.2,9 46,10.5c5.5,0.6 13.2,1.5 17,1.9c11.3,1.3 23.4,1.2 40.6,-0.4z" id="svg_2"/>
  </g>
  <path fill="#0f8bbc" stroke="#1c9aa8" stroke-width="0" d="m1092.68819,121.82261c0.04886,-0.15997 0.11573,-0.29544 0.17916,-0.36296c0.06796,-0.07234 0.03781,-0.10371 -0.0323,-0.03361c-0.02949,0.02949 -0.03792,0.00808 -0.03792,-0.09637c0,-0.2492 0.12918,-0.40339 0.43999,-0.5252c0.26299,-0.10307 0.45689,-0.21897 0.53728,-0.32117l0.06551,-0.08328l0,0.1449c0,0.17918 -0.05559,0.44987 -0.11712,0.57032c-0.06527,0.12778 -0.28901,0.36365 -0.3988,0.42042c-0.09836,0.05087 -0.30844,0.06584 -0.42071,0.02999c-0.05595,-0.01787 -0.07371,-0.00422 -0.1027,0.07895c-0.01928,0.0553 -0.03505,0.13398 -0.03505,0.17483c0,0.04638 -0.0186,0.07428 -0.04953,0.07428c-0.03673,0 -0.04392,-0.01837 -0.02781,-0.0711l0,0z" id="svg_8"/>
  <path fill="#0f8bbc" stroke="#1c9aa8" stroke-width="0" d="m1106.61819,118.83761c0.04886,-0.15997 0.11573,-0.29544 0.17916,-0.36296c0.06796,-0.07234 0.03781,-0.10371 -0.0323,-0.03361c-0.02949,0.02949 -0.03792,0.00808 -0.03792,-0.09637c0,-0.2492 0.12918,-0.40339 0.43999,-0.5252c0.26299,-0.10307 0.45689,-0.21897 0.53728,-0.32117l0.06551,-0.08328l0,0.1449c0,0.17918 -0.05559,0.44987 -0.11712,0.57032c-0.06527,0.12778 -0.28901,0.36365 -0.3988,0.42042c-0.09836,0.05087 -0.30844,0.06584 -0.42071,0.02999c-0.05595,-0.01787 -0.07371,-0.00422 -0.1027,0.07895c-0.01928,0.0553 -0.03505,0.13398 -0.03505,0.17483c0,0.04638 -0.0186,0.07428 -0.04953,0.07428c-0.03673,0 -0.04392,-0.01837 -0.02781,-0.0711l0,0z" id="svg_9"/>
  <path fill="#0f8bbc" stroke="#1c9aa8" stroke-width="0" d="m1128.50819,154.65761c0.04886,-0.15997 0.11573,-0.29544 0.17916,-0.36296c0.06796,-0.07234 0.03781,-0.10371 -0.0323,-0.03361c-0.02949,0.02949 -0.03792,0.00808 -0.03792,-0.09637c0,-0.2492 0.12918,-0.40339 0.43999,-0.5252c0.26299,-0.10307 0.45689,-0.21897 0.53728,-0.32117l0.06551,-0.08328l0,0.1449c0,0.17918 -0.05559,0.44987 -0.11712,0.57032c-0.06527,0.12778 -0.28901,0.36365 -0.3988,0.42042c-0.09836,0.05087 -0.30844,0.06584 -0.42071,0.02999c-0.05595,-0.01787 -0.07371,-0.00422 -0.1027,0.07895c-0.01928,0.0553 -0.03505,0.13398 -0.03505,0.17483c0,0.04638 -0.0186,0.07428 -0.04953,0.07428c-0.03673,0 -0.04392,-0.01837 -0.02781,-0.0711l0,0z" id="svg_10"/>
  <path fill="#0f8bbc" stroke="#1c9aa8" stroke-width="0" d="m976.27319,186.49761c0.04886,-0.15997 0.11573,-0.29544 0.17916,-0.36296c0.06796,-0.07234 0.03781,-0.10371 -0.0323,-0.03361c-0.02949,0.02949 -0.03792,0.00808 -0.03792,-0.09637c0,-0.2492 0.12918,-0.40339 0.43999,-0.5252c0.26299,-0.10307 0.45689,-0.21897 0.53728,-0.32117l0.06551,-0.08328l0,0.1449c0,0.17918 -0.05559,0.44987 -0.11712,0.57032c-0.06527,0.12778 -0.28901,0.36365 -0.3988,0.42042c-0.09836,0.05087 -0.30844,0.06584 -0.42071,0.02999c-0.05595,-0.01787 -0.07371,-0.00422 -0.1027,0.07895c-0.01928,0.0553 -0.03505,0.13398 -0.03505,0.17483c0,0.04638 -0.0186,0.07428 -0.04953,0.07428c-0.03673,0 -0.04392,-0.01837 -0.02781,-0.0711l0,0z" id="svg_11"/>
  <path fill="#0f8bbc" stroke="#1c9aa8" stroke-width="0" d="m1162.33819,95.95261c0.04886,-0.15997 0.11573,-0.29544 0.17916,-0.36296c0.06796,-0.07234 0.03781,-0.10371 -0.0323,-0.03361c-0.02949,0.02949 -0.03792,0.00808 -0.03792,-0.09637c0,-0.2492 0.12918,-0.40339 0.43999,-0.5252c0.26299,-0.10307 0.45689,-0.21897 0.53728,-0.32117l0.06551,-0.08328l0,0.1449c0,0.17918 -0.05559,0.44987 -0.11712,0.57032c-0.06527,0.12778 -0.28901,0.36365 -0.3988,0.42042c-0.09836,0.05087 -0.30844,0.06584 -0.42071,0.02999c-0.05595,-0.01787 -0.07371,-0.00422 -0.1027,0.07895c-0.01928,0.0553 -0.03505,0.13398 -0.03505,0.17483c0,0.04638 -0.0186,0.07428 -0.04953,0.07428c-0.03673,0 -0.04392,-0.01837 -0.02781,-0.0711l0,0z" id="svg_13"/>
  <line fill="none" stroke="#1c9aa8" opacity="NaN" x1="751" y1="226" x2="751" y2="226" id="svg_15"/>
  <path fill="#0f8bbc" stroke="#1c9aa8" stroke-width="0" d="m1206.11819,105.90261c0.04886,-0.15997 0.11573,-0.29544 0.17916,-0.36296c0.06796,-0.07234 0.03781,-0.10371 -0.0323,-0.03361c-0.02949,0.02949 -0.03792,0.00808 -0.03792,-0.09637c0,-0.2492 0.12918,-0.40339 0.43999,-0.5252c0.26299,-0.10307 0.45689,-0.21897 0.53728,-0.32117l0.06551,-0.08328l0,0.1449c0,0.17918 -0.05559,0.44987 -0.11712,0.57032c-0.06527,0.12778 -0.28901,0.36365 -0.3988,0.42042c-0.09836,0.05087 -0.30844,0.06584 -0.42071,0.02999c-0.05595,-0.01787 -0.07371,-0.00422 -0.1027,0.07895c-0.01928,0.0553 -0.03505,0.13398 -0.03505,0.17483c0,0.04638 -0.0186,0.07428 -0.04953,0.07428c-0.03673,0 -0.04392,-0.01837 -0.02781,-0.0711l0,0z" id="svg_16"/>
  <path fill="#0f8bbc" stroke="#1c9aa8" stroke-width="0" d="m1049.90319,128.78761c0.04886,-0.15997 0.11573,-0.29544 0.17916,-0.36296c0.06796,-0.07234 0.03781,-0.10371 -0.0323,-0.03361c-0.02949,0.02949 -0.03792,0.00808 -0.03792,-0.09637c0,-0.2492 0.12918,-0.40339 0.43999,-0.5252c0.26299,-0.10307 0.45689,-0.21897 0.53728,-0.32117l0.06551,-0.08328l0,0.1449c0,0.17918 -0.05559,0.44987 -0.11712,0.57032c-0.06527,0.12778 -0.28901,0.36365 -0.3988,0.42042c-0.09836,0.05087 -0.30844,0.06584 -0.42071,0.02999c-0.05595,-0.01787 -0.07371,-0.00422 -0.1027,0.07895c-0.01928,0.0553 -0.03505,0.13398 -0.03505,0.17483c0,0.04638 -0.0186,0.07428 -0.04953,0.07428c-0.03673,0 -0.04392,-0.01837 -0.02781,-0.0711l0,0z" id="svg_18"/>
  <path fill="#0f8bbc" stroke="#1c9aa8" stroke-width="0" d="m781.25319,212.36761c0.04886,-0.15997 0.11573,-0.29544 0.17916,-0.36296c0.06796,-0.07234 0.03781,-0.10371 -0.0323,-0.03361c-0.02949,0.02949 -0.03792,0.00808 -0.03792,-0.09637c0,-0.2492 0.12918,-0.40339 0.43999,-0.5252c0.26299,-0.10307 0.45689,-0.21897 0.53728,-0.32117l0.06551,-0.08328l0,0.1449c0,0.17918 -0.05559,0.44987 -0.11712,0.57032c-0.06527,0.12778 -0.28901,0.36365 -0.3988,0.42042c-0.09836,0.05087 -0.30844,0.06584 -0.42071,0.02999c-0.05595,-0.01787 -0.07371,-0.00422 -0.1027,0.07895c-0.01928,0.0553 -0.03505,0.13398 -0.03505,0.17483c0,0.04638 -0.0186,0.07428 -0.04953,0.07428c-0.03673,0 -0.04392,-0.01837 -0.02781,-0.0711l0,0z" id="svg_19"/>
  <path fill="#0f8bbc" stroke="#1c9aa8" stroke-width="0" d="m1064.82819,142.71761c0.04886,-0.15997 0.11573,-0.29544 0.17916,-0.36296c0.06796,-0.07234 0.03781,-0.10371 -0.0323,-0.03361c-0.02949,0.02949 -0.03792,0.00808 -0.03792,-0.09637c0,-0.2492 0.12918,-0.40339 0.43999,-0.5252c0.26299,-0.10307 0.45689,-0.21897 0.53728,-0.32117l0.06551,-0.08328l0,0.1449c0,0.17918 -0.05559,0.44987 -0.11712,0.57032c-0.06527,0.12778 -0.28901,0.36365 -0.3988,0.42042c-0.09836,0.05087 -0.30844,0.06584 -0.42071,0.02999c-0.05595,-0.01787 -0.07371,-0.00422 -0.1027,0.07895c-0.01928,0.0553 -0.03505,0.13398 -0.03505,0.17483c0,0.04638 -0.0186,0.07428 -0.04953,0.07428c-0.03673,0 -0.04392,-0.01837 -0.02781,-0.0711l0,0z" id="svg_20"/>
  <path fill="#0f8bbc" stroke="#1c9aa8" stroke-width="0" d="m1136.46819,251.17261c0.04886,-0.15997 0.11573,-0.29544 0.17916,-0.36296c0.06796,-0.07234 0.03781,-0.10371 -0.0323,-0.03361c-0.02949,0.02949 -0.03792,0.00808 -0.03792,-0.09637c0,-0.2492 0.12918,-0.40339 0.43999,-0.5252c0.26299,-0.10307 0.45689,-0.21897 0.53728,-0.32117l0.06551,-0.08328l0,0.1449c0,0.17918 -0.05559,0.44987 -0.11712,0.57032c-0.06527,0.12778 -0.28901,0.36365 -0.3988,0.42042c-0.09836,0.05087 -0.30844,0.06584 -0.42071,0.02999c-0.05595,-0.01787 -0.07371,-0.00422 -0.1027,0.07895c-0.01928,0.0553 -0.03505,0.13398 -0.03505,0.17483c0,0.04638 -0.0186,0.07428 -0.04953,0.07428c-0.03673,0 -0.04392,-0.01837 -0.02781,-0.0711l0,0z" id="svg_21"/>
  <path fill="#0f8bbc" stroke="#1c9aa8" stroke-width="0" d="m1057.86319,232.26761c0.04886,-0.15997 0.11573,-0.29544 0.17916,-0.36296c0.06796,-0.07234 0.03781,-0.10371 -0.0323,-0.03361c-0.02949,0.02949 -0.03792,0.00808 -0.03792,-0.09637c0,-0.2492 0.12918,-0.40339 0.43999,-0.5252c0.26299,-0.10307 0.45689,-0.21897 0.53728,-0.32117l0.06551,-0.08328l0,0.1449c0,0.17918 -0.05559,0.44987 -0.11712,0.57032c-0.06527,0.12778 -0.28901,0.36365 -0.3988,0.42042c-0.09836,0.05087 -0.30844,0.06584 -0.42071,0.02999c-0.05595,-0.01787 -0.07371,-0.00422 -0.1027,0.07895c-0.01928,0.0553 -0.03505,0.13398 -0.03505,0.17483c0,0.04638 -0.0186,0.07428 -0.04953,0.07428c-0.03673,0 -0.04392,-0.01837 -0.02781,-0.0711l0,0z" id="svg_22"/>
  <path id="svg_6" d="m235.60837,844.83847c23.6153,-77.32259 55.93814,-142.8068 86.59841,-175.44313c32.84754,-34.96462 18.27421,-50.13115 -15.6107,-16.24618c-14.25581,14.2557 -18.32888,3.9045 -18.32888,-46.58064c0,-120.45353 62.4408,-194.98667 212.6767,-253.86351c127.12185,-49.81878 220.84312,-105.84321 259.70198,-155.24414l31.66516,-40.25587l0,70.04123c0,86.60703 -26.86979,217.44928 -56.61222,275.67278c-31.5514,61.76497 -139.69768,175.77396 -192.76681,203.21702c-47.54524,24.58673 -149.08663,31.82492 -203.35573,14.49591c-27.04453,-8.63565 -35.62761,-2.03758 -49.64067,38.16029c-9.31831,26.7305 -16.94242,64.7588 -16.94242,84.50703c0,22.41971 -8.99196,35.90578 -23.94038,35.90578c-17.75423,0 -21.22822,-8.88011 -13.44441,-34.36658l-0.00002,0z" stroke-width="0" stroke="#0f8bbc" fill="#1c9aa8"/>
 </g>

</svg>