<svg width="150" height="58" xmlns="http://www.w3.org/2000/svg" version="1.1">

 <g>
  <title>Layer 1</title>
  <text transform="matrix(1 0 0 1.42012 3.11118 -16.5304)" stroke="#000000" font-style="normal" font-weight="normal" xml:space="preserve" text-anchor="start" font-family="'Nunito Black'" font-size="48" id="svg_2" y="50.32498" x="3.8161" stroke-width="0" fill="#0f8bbc">sec or</text>
  <path id="svg_3" d="m67.74818,17.71449c-0.21562,0 -0.32645,-0.21663 -0.32645,-0.4764c0,-0.21657 0.05541,-0.42684 0.21562,-0.42684c0.11083,0 0.27766,0.21027 0.33307,0.42684c0.11083,0.31533 0,0.4764 -0.22224,0.4764zm36.85777,12.36036c0.4933,0 0.60411,0.05556 0.32645,0.42679c-0.16021,0.25977 -0.49328,0.47635 -0.6535,0.47635c-0.16682,0 -0.33307,-0.21657 -0.33307,-0.47635c0,-0.26614 0.22226,-0.42679 0.66012,-0.42679zm-34.44013,-15.1195c-0.49328,-0.10511 -0.54871,-0.63737 0,-0.79806c0.27765,-0.04949 0.43788,0.10509 0.43788,0.42684c0,0.26611 -0.16023,0.42076 -0.43788,0.37122zm-6.14889,16.81438c0.66012,-0.15466 0.66012,-0.26583 0.43788,-0.63101c-0.16625,-0.26583 -0.22166,-0.58754 -0.11083,-0.69267c0.05541,-0.16098 0.33307,0 0.49328,0.31536c0.22224,0.42684 0.38848,0.48274 0.82635,0.21657c0.27164,-0.16068 0.49328,-0.26608 0.49328,-0.10509c0,0.10509 0.16684,0 0.38246,-0.21657c0.33309,-0.31536 0.38849,-1.00832 0.05542,-1.37957c-0.27104,-0.31536 -1.64669,-0.21024 -2.02914,0.16068c-0.22166,0.26616 -0.38849,0.21057 -0.60411,-0.26578c-0.33307,-0.79204 -0.33307,-0.90324 0.43786,-0.95273c0.66012,0 0.66012,0 0.11083,-0.32172c-0.27706,-0.15466 -0.54869,-0.47635 -0.54869,-0.68662c0,-0.53222 0.76491,-0.84758 1.09798,-0.47633c0.11083,0.15463 0.32646,0.31536 0.54871,0.31536c0.43788,0 2.52845,-1.80008 2.52845,-2.17133c0,-0.16097 0.21622,-0.26606 0.43788,-0.16097c0.27163,0.05588 0.76493,-0.10509 1.26484,-0.37125c0.7089,-0.42681 0.7089,-0.47635 0.32645,-1.16902c-0.27104,-0.47635 -0.60411,-0.63737 -1.37506,-0.63737c-0.87574,0 -1.09798,0.10514 -1.36902,0.74251c-0.11143,0.42679 -0.44449,0.74217 -0.66012,0.74217c-0.38246,0 -0.49328,-0.47606 -0.11083,-0.74217c0.16623,-0.10514 0.27706,-0.47635 0.27706,-0.8476c0,-0.58151 -0.11083,-0.68662 -0.82635,-0.53194c-0.71553,0.10509 -0.71553,0.05556 -0.54871,-0.74254c0.11083,-0.47633 0.27104,-0.90314 0.38247,-0.95268c0.11083,-0.05556 0.22164,-0.53194 0.22164,-1.00828c0,-0.95278 0.32705,-1.11346 0.93177,-0.42684c0.27704,0.37124 0.4439,0.42684 0.54869,0.10509c0.11083,-0.21024 0.4993,-0.25977 1.10402,-0.15468c0.82033,0.21027 0.87574,0.15468 0.76491,-0.47635c-0.05541,-0.3712 -0.11141,-0.79805 -0.16682,-0.90314c0,-0.16073 -0.27104,-0.37125 -0.59809,-0.53199c-0.66012,-0.26606 -0.82635,-0.90314 -0.22224,-0.90314c0.16684,0 0.32703,-0.10514 0.32703,-0.3157c0,-0.16073 0.33309,-0.26583 0.77095,-0.21661c0.60472,0.05588 0.93116,-0.1546 1.75752,-1.26801c0.60472,-0.7981 1.04258,-1.22491 1.098,-1.00833c0.05541,0.26583 0.33307,0.42046 0.6047,0.42046c0.43788,0 0.4933,-0.15463 0.33309,-0.8473c-0.05601,-0.47638 -0.33309,-1.05782 -0.49991,-1.32398c-0.4933,-0.58778 -0.4933,-1.2744 0,-1.06421c0.38848,0.21057 1.59729,-0.37092 1.59729,-0.74216c0,-0.16098 0.16082,-0.26611 0.38246,-0.26611c0.22226,0 0.32705,0.3217 0.32705,0.74249c0,0.53194 0.11083,0.74221 0.38849,0.58753c0.21562,-0.11118 0.38247,-0.42684 0.38247,-0.63706c0,-0.6374 1.7575,-1.75083 2.19536,-1.43518c0.16685,0.10518 0.33307,0 0.38911,-0.3712c0.1602,-0.74249 1.15278,-1.32398 1.59065,-0.95273c0.22226,0.15463 0.43789,0.10514 0.4939,-0.05556c0.11081,-0.21055 0.54869,-0.37125 1.04197,-0.42082c0.49328,-0.05556 1.1534,-0.26611 1.43107,-0.48269c1.04197,-0.68662 2.08457,-0.63708 2.52243,0.10546c0.27766,0.5319 0.38848,0.5319 0.38848,0.16065c0,-0.47638 0.21624,-0.53194 1.53588,-0.3712c2.09059,0.21055 2.41764,0.21055 3.18859,-0.05561c0.49328,-0.15466 0.6601,-0.10513 0.6601,0.32167c0,0.26616 0.16023,0.4764 0.38247,0.4764c0.16623,0 0.32645,-0.15468 0.32645,-0.31566c0,-0.42679 0.88238,-0.63706 1.65331,-0.42679c0.59809,0.21055 0.6535,0.26606 0.49328,1.69517c-0.05541,0.85365 0,1.43515 0.10481,1.43515c0.11081,0 0.22224,-0.37125 0.22224,-0.90319c0,-0.89714 0.60411,-1.26809 0.82635,-0.53195c0.05542,0.26584 0.21562,0.1607 0.32645,-0.25976c0.27768,-1.11375 0.88238,-0.53227 0.71553,0.68662c-0.16622,1.00828 -0.16622,1.00828 0.32707,0.63703c0.27765,-0.1607 0.49327,-0.58144 0.49327,-0.8473c0,-0.26613 0.16685,-0.58178 0.38851,-0.69297c0.43784,-0.21019 0.93175,0.58758 0.77093,1.1693c-0.05541,0.26588 -0.05541,0.47638 0.10479,0.47638c0.11143,0 0.22226,-0.15463 0.22226,-0.26611c0,-0.15466 0.27163,-0.21027 0.6047,-0.10509c0.71494,0.1607 0.81973,0.58749 0.21564,0.84727c-0.16021,0.11148 -0.32705,0.37125 -0.32705,0.58786c0,0.37125 0.11141,0.37125 0.71553,0c0.98657,-0.63706 1.42443,-0.58786 1.59128,0.10509c0.11081,0.37125 0.32703,0.53224 0.54869,0.37125c0.22224,-0.05559 0.71553,0.16098 1.098,0.53194c0.33307,0.31565 0.82635,0.58149 1.0486,0.58149c0.32705,0 0.32705,0.26614 0.21562,1.0086c-0.11081,0.7981 -0.11081,0.90319 0.22226,0.58152c0.43786,-0.52593 0.60411,-0.47643 0.76493,0.26578c0.05541,0.37125 0.44388,0.63737 0.88176,0.79806c0.49328,0.10546 0.76493,0.37124 0.76493,0.6869c0,0.3217 0.16622,0.69267 0.33307,0.90322c0.43788,0.3712 0.32645,1.48463 -0.16685,1.85587c-0.16622,0.1112 -0.38244,0.05561 -0.43786,-0.10509c-0.11081,-0.16102 -0.49328,-0.16102 -1.20883,0c-1.1534,0.37092 -1.36902,0.47635 -1.09798,0.95875c0.16684,0.31536 2.08515,0.21027 3.13316,-0.16098c0.32705,-0.16072 0.43788,0 0.43788,0.74251c0,0.5319 -0.11083,0.95273 -0.27706,0.95273c-0.11143,0 -0.21622,0.16068 -0.21622,0.42679c0,0.63733 0.27164,0.58144 0.98717,-0.16073c0.38185,-0.42679 0.60409,-0.53222 0.87574,-0.26606c0.27706,0.26606 0.33307,0.26606 0.33307,-0.16073c0,-0.26009 -0.11143,-0.47635 -0.27765,-0.47635c-0.10481,0 -0.21624,-0.21055 -0.21624,-0.42082c0,-0.26608 0.16082,-0.47635 0.38246,-0.47635c0.16684,0 0.38849,0.10509 0.38849,0.25977c0,0.16105 0.21622,0.37124 0.49389,0.42684c0.38187,0.16102 0.49328,0.37125 0.43786,1.00832c-0.11141,1.21881 0.11084,1.59009 0.93116,1.37986c0.38849,-0.10546 0.60409,0 0.43788,0.21024c-0.04939,0.10509 0,0.37125 0.11083,0.48237c0.44449,0.31568 0.27765,1.0579 -0.21564,1.0579c-0.6047,0 -0.77095,0.26606 -0.44388,0.74246c0.22164,0.26611 0.38848,0.31536 0.60409,0.10513c0.49991,-0.53194 0.60472,-0.10513 0.66012,2.01694c0,1.06384 0.11083,1.91148 0.22166,1.91148c0.27163,0 0.16684,1.1693 -0.22166,1.64565c-0.21622,0.26583 -0.21622,0.52558 -0.05541,0.74216c0.38848,0.4764 0,1.85597 -0.4939,1.85597c-0.43784,0 -1.26422,1.00828 -1.26422,1.48466c0,0.58181 -0.7089,0 -0.87574,-0.63708c-0.16623,-0.58147 -0.16623,-0.58147 -0.27766,-0.16098c-0.10479,0.4827 0.49389,1.96737 0.99321,2.38811c0.32703,0.32175 -0.27766,0.85365 -0.71554,0.63708c-0.22226,-0.10509 -0.32705,-0.42046 -0.32705,-0.74217c0,-0.90314 -1.37506,-3.17988 -2.41764,-4.03351c-0.55471,-0.42082 -1.04801,-0.89717 -1.04801,-1.05785c0,-0.32172 -1.7581,-1.32398 -2.74467,-1.64568c-0.54931,-0.16098 -0.71554,-0.10511 -0.71554,0.3217c0,0.31536 -0.10479,0.42046 -0.32705,0.31536c-0.49328,-0.21027 -0.71553,0.26616 -0.27765,0.74251c0.6047,0.58147 0.49991,1.2744 -0.16021,1.00828c-0.4439,-0.1607 -0.49932,-0.10514 -0.33307,0.79808c0.05541,0.52588 0.16684,1.21881 0.16684,1.53417c0,0.32172 0.11081,0.53199 0.22164,0.53199c0.16083,0 0.21622,-0.10514 0.10481,-0.26583c-0.05541,-0.16102 0.05603,-0.31566 0.27765,-0.31566c0.16685,0 0.32705,0.21052 0.32705,0.42076c0,0.21661 -0.21621,0.42679 -0.6047,0.37129c-0.32645,0 -0.60411,-0.15468 -0.60411,-0.25981c0,-0.48274 -1.48046,-3.76771 -1.91832,-4.25011c-0.4933,-0.52593 -0.16625,-0.68662 -4.06434,1.80637c-0.60409,0.37125 -1.26422,1.1693 -1.59729,1.75083c-0.27164,0.58144 -0.70951,1.1693 -0.93116,1.2744c-0.22224,0.10514 -1.04258,0.95273 -1.75812,1.85592c-3.07776,3.97761 -2.57785,4.45399 -2.36221,12.57696c0.93175,6.15525 0.93175,6.15525 0.93175,6.15525c-2.19598,0 -2.19598,0 -2.19598,0c-1.81292,0 -1.81292,0 -1.81292,0c0.16623,-5.67922 0.16623,-5.67922 0.16623,-5.67922c0.11081,-0.47603 0.16684,-1.43509 0.22226,-1.96708c0.05541,-0.31565 -1.5419,-1.69522 -1.48648,-2.01055c0,-0.26611 1.65271,0.4764 1.65271,0.21024c0.27163,-3.87252 0,-6.95335 -0.71554,-8.59296c-0.16623,-1.00833 -1.54188,-4.2498 -1.7575,-4.2498c-0.05542,0 -0.4439,-0.31565 -0.82635,-0.6869c-0.66014,-0.69264 -0.93116,-0.74221 -4.61364,-0.95273c-3.9535,-0.21629 -3.9535,-0.21629 -3.9535,-0.21629c-0.93718,0.74221 -0.93718,0.74221 -0.93718,0.74221c-0.54869,0.48269 -1.09798,0.79806 -1.25821,0.79806c-0.33307,0 -1.70872,1.1137 -2.30681,1.75073c-0.05541,0 -0.11081,-0.05551 -0.11081,-0.10509c-0.05542,0 -0.05542,0 -0.05542,-0.05559c-0.05541,-0.15463 -0.11141,-0.31565 -0.22224,-0.47635c0.33307,-0.26611 0.6047,-0.4271 0.71553,-0.3712c0.16623,0.10509 0.32705,0 0.32705,-0.26616c0,-0.26583 -0.32705,-0.37124 -1.20279,-0.26583c-1.04861,0.16073 -1.32024,0.21629 -1.48648,0.84732c-0.27164,0.3217 -0.32705,0.79808 -0.16623,1.16934c-0.05603,0.47635 -0.05603,0.79805 0,0.79805c0.05541,0 0.11081,-0.10509 0.27706,-0.21657c0,0.05561 0.05541,0.11148 0.11141,0.16098c-0.54929,0.1607 -0.82696,0.63708 -0.77095,1.11343c-0.27765,0.21657 -0.54929,0.3217 -0.88235,0.4824c0,0 0,-0.05556 -0.0494,-0.05556c0.21622,-0.47635 0.32705,-1.00833 0.38246,-1.80638c0.11143,-0.89717 0.05541,-1.48466 -0.11081,-1.48466c-0.11083,0 -0.22224,0.21657 -0.22224,0.53189c0.05539,0.26616 -0.0494,0.53199 -0.27106,0.58152c-0.16684,0.05556 -0.27765,-0.04954 -0.27765,-0.31536c0,-0.63737 -0.21564,-0.63737 -0.70952,-0.05588c-0.22164,0.21657 -0.65952,0.47638 -1.04197,0.58786c-0.49991,0.15463 -0.66012,0.04949 -0.88236,-0.53199c-0.16623,-0.47635 -0.27706,-1.0086 -0.16623,-1.21884c0.05541,-0.26611 0.05541,-0.4824 -0.16021,-0.4824c-0.60472,0 -0.16684,-0.84763 0.54869,-1.00862zm4.72445,-12.19937c-0.33307,-0.05556 -0.60472,-0.21024 -0.71553,-0.42681c-0.05542,-0.31565 -0.11083,-0.31565 -0.11083,0c0,0.21657 -0.22224,0.37125 -0.43788,0.42681c-0.38848,0 -0.38848,0.05559 0.05542,0.26616c0.27102,0.10509 0.54869,0.26578 0.60409,0.26578c0.04939,0 0.32705,-0.16068 0.60472,-0.26578c0.49328,-0.26616 0.49328,-0.26616 0,-0.26616zm43.55535,8.54343c0.10481,0.10514 0.21564,-0.05588 0.21564,-0.3217c0,-0.21052 -0.11083,-0.42079 -0.21564,-0.42079c-0.16682,0 -0.27765,0.10513 -0.27765,0.25977c0,0.16102 0.11083,0.37759 0.27765,0.48272zm-0.38848,0.47638c-0.05541,-0.16102 -0.32705,-0.37124 -0.54929,-0.37124c-0.16021,0 -0.27104,0.21022 -0.16021,0.37124c0.04939,0.1607 0.27163,0.26584 0.49328,0.26584c0.21622,0 0.27163,-0.10514 0.21622,-0.26584zm-0.49328,2.38782c0.16623,0 0.38848,-0.05556 0.38848,-0.10509c0,-0.11148 -0.22224,-0.21657 -0.38848,-0.32172c-0.21622,-0.10513 -0.38247,-0.04954 -0.38247,0.10514c0,0.16098 0.16625,0.32167 0.38247,0.32167zm0.43788,-5.04179c0.22164,-0.10518 0.33305,-0.26614 0.27706,-0.42082c-0.16625,-0.37726 -1.09741,-0.37726 -1.09741,0c0,0.42082 0.32646,0.58152 0.82035,0.42082zm-3.01632,-3.97798c-0.27766,0.16102 -0.4439,0.47638 -0.38851,0.63737c0.27766,0.42051 0.60473,0.31536 0.88178,-0.37125c0.27164,-0.63737 0.16082,-0.74246 -0.49327,-0.26611zm-1.04861,8.17219c1.43105,1.42906 1.48648,1.48466 1.48648,1.00832c0,-0.26583 -0.11083,-0.4824 -0.27766,-0.4824c-0.1602,0 -0.43786,-0.26616 -0.60409,-0.58147c-0.16023,-0.3157 -0.49328,-0.63742 -0.76493,-0.63742c-0.4993,0 -0.4993,0.05589 0.16021,0.69297zm-1.15282,-2.49934c0.33248,0 0.4933,-0.10509 0.27708,-0.15465c-0.16623,-0.10513 -0.43788,-0.10513 -0.60411,0c-0.16685,0.04955 0,0.15465 0.32703,0.15465zm-1.59127,-7.21312c0.16623,0.16073 0.65952,0.37097 1.09738,0.4764c0.77097,0.16068 0.82637,0.16068 0.38849,-0.26611c-0.4993,-0.52593 -1.86833,-0.68662 -1.48587,-0.21029zm-3.3494,-8.80315c-0.16623,0.15463 -0.22164,0.47635 -0.16623,0.68657c0.11083,0.42684 0.43788,0.05561 0.43788,-0.58147c0,-0.32172 -0.05542,-0.37125 -0.27164,-0.10509zm1.64669,11.45716c0.43788,0.26579 0.60472,0.26579 0.82697,-0.10543c0.43786,-0.58151 0.1602,-0.8473 -0.66014,-0.47633c-0.66012,0.26006 -0.66012,0.26006 -0.16684,0.58176zm-1.09738,-2.65402c0.82635,-0.58142 0.82635,-0.58142 0.16623,-0.58142c-0.4439,0 -0.77095,0.21019 -0.93718,0.58142c-0.10481,0.37097 -0.21622,0.58152 -0.16082,0.58152c0,0 0.43788,-0.31568 0.93177,-0.58152zm-1.20883,8.59903c0.38185,0.58152 1.04199,0.58152 0.82635,-0.05559c-0.05541,-0.21052 -0.11141,-0.47635 -0.11141,-0.53224c0,-0.04954 -0.22166,-0.04954 -0.49328,0.05589c-0.4439,0.10513 -0.4439,0.26583 -0.22166,0.53194zm-1.7027,-2.17762c0.43786,0.58151 0.66012,0.63706 1.1534,0.21027c0.32705,-0.26583 0.32705,-0.26583 0,-0.31536c-0.16623,0 -0.60411,-0.05589 -0.98657,-0.16102c-0.54929,-0.21024 -0.54929,-0.21024 -0.16684,0.26611zm-0.05541,-5.78433c0.27765,0 0.6047,-0.84758 0.43788,-1.11341c-0.21564,-0.26611 -0.65953,0.16068 -0.65953,0.63706c0,0.26613 0.11083,0.47635 0.22166,0.47635zm-2.68868,3.60669c-0.33307,0.21657 -0.27765,0.26616 0.16023,0.26616c0.27765,0 0.60409,-0.10546 0.71553,-0.26616c0.16622,-0.42074 -0.38247,-0.42074 -0.87576,0zm0.05542,4.67062c0.04939,0.05589 0.21562,-0.05559 0.38246,-0.31536c0.16622,-0.21657 0.65953,-0.48269 1.04197,-0.58783c0.49328,-0.16073 0.71554,-0.42049 0.71554,-0.79808c0,-0.8968 -0.77095,-0.63103 -1.5913,0.53226c-0.33305,0.58754 -0.60409,1.06392 -0.54867,1.16902zm-0.6047,-2.44345c0.49327,-0.58144 0.49327,-0.6869 0.10477,-0.8476c-0.43786,-0.21027 -0.76431,0.26616 -0.76431,1.11343c-0.05601,0.63737 -0.05601,0.63737 0.65953,-0.26583zm-0.88178,-6.26066c0.05541,0.42679 0.16623,0.37124 0.49327,-0.42079c0.38851,-0.84732 0.38851,-0.9588 0.05542,-0.9588c-0.21562,0 -0.43788,0.16073 -0.49328,0.42686c-0.11083,0.21022 -0.11083,0.69296 -0.05541,0.95273zm-0.27164,-4.34892c0,0.21629 0.10479,0.74221 0.21622,1.11343c0.16623,0.74249 0.16623,0.74249 0.33307,0.10513c0.21562,-0.63703 0,-1.58976 -0.33307,-1.58976c-0.16082,0 -0.21622,0.16065 -0.21622,0.3712zm-3.8481,1.75049c-0.27163,0.37125 -0.27163,0.74251 -0.05601,1.85592c0.11143,0.79806 0.3891,1.59615 0.54929,1.75083c0.27766,0.26611 0.33307,0 0.38848,-1.6454c0,-2.0106 -0.27765,-2.64791 -0.88176,-1.96135zm0.49328,5.62363c0.05542,0.10514 0.16623,-0.10513 0.11083,-0.42077c0,-0.32172 -0.05541,-0.37125 -0.16623,-0.1607c-0.0494,0.21024 -0.0494,0.47635 0.05541,0.58147zm1.97976,-4.98627c-0.05541,0.10514 -0.05541,0.84763 0.11083,1.6454c0.16684,1.37986 0.21622,1.43541 0.27164,0.4271c0.05541,-1.64568 -0.05542,-2.44373 -0.38247,-2.07249zm-1.86893,14.96484c0.33307,-0.63737 0.88178,-1.70129 1.26423,-2.3386c0.43786,-0.68667 0.71553,-1.58981 0.82635,-2.493c0.16082,-1.42911 0.16082,-1.42911 0.16082,-1.42911c-0.66012,0.79203 -0.66012,0.79203 -0.66012,0.79203c-0.32705,0.42684 -0.54871,0.90319 -0.54871,1.06392c0,0.42076 -1.04258,3.07472 -1.36963,3.5511c-0.16623,0.26578 -0.4439,0.85365 -0.49328,1.2744c-0.27766,1.21859 0.21622,1.00832 0.82033,-0.42074zm-3.89809,5.46261c0.16684,1.05782 0.16684,1.05782 0.71554,-1.21886c0.32705,-1.22493 0.82033,-3.1859 1.1534,-4.40478c0.43786,-1.54027 0.6047,-2.81467 0.6047,-4.61498c0,-2.33837 -0.05601,-2.38791 -0.49387,-2.12174c-0.9926,0.6866 -1.5419,2.59808 -1.76355,6.30986c-0.10479,1.91184 -0.21622,3.82332 -0.32703,4.24411c-0.05542,0.42681 0,1.22489 0.11081,1.80638zm0.11143,-13.57925c0.21562,0.52592 0.43788,0.95273 0.43788,0.95273c0.05541,0 0.32643,-0.32172 0.54869,-0.74246c0.27765,-0.37095 0.71553,-0.79776 0.88178,-0.95244c0.65408,-0.48269 0.82032,-1.96735 0.27163,-2.97567c-0.43788,-0.90319 -1.64669,-1.91181 -1.86895,-1.59009c-0.11081,0.10513 -0.27102,1.11375 -0.38246,2.28276c-0.22164,1.75078 -0.22164,2.283 0.11143,3.02517zm-0.33307,-12.15009c0.11083,0.10543 0.22164,0.04954 0.22164,-0.11115c0,-0.21055 -0.11081,-0.42082 -0.22164,-0.52593c-0.16684,-0.11147 -0.27164,-0.05559 -0.27164,0.15468c0,0.1607 0.10481,0.37125 0.27164,0.4824zm-17.79377,14.26578c0.76491,0.05588 0.76491,0.05588 0.76491,0.05588c0.77095,0 1.5419,-0.6869 1.5419,-1.2744c0,-0.37125 -0.05541,-0.37125 -2.30681,1.21852zm0.32705,-1.48468c0,0.16107 0.11083,0.32172 0.27766,0.32172c0.27104,0 1.04197,-0.95273 0.87574,-1.11341c-0.16684,-0.21657 -1.1534,0.47633 -1.1534,0.79169zm0.6047,-3.65618c0.82637,1.05811 1.20883,1.16323 1.64669,0.47633c0.4439,-0.63703 0.05542,-1.06387 -1.26482,-1.21855c-1.0974,-0.16102 -1.0974,-0.16102 -0.38187,0.74222zm-0.6047,-2.9754c0,0.11115 0.38848,0.37092 0.82635,0.58749c2.02916,1.00833 2.41764,1.00833 2.36221,0.04959c0,-0.58152 -0.82635,-1.85595 -1.1534,-1.85595c-0.38848,0 -2.03516,1.00832 -2.03516,1.21887zm2.96693,7.53482c0.60411,0 0.65952,-0.16073 0.16623,-0.42051c-0.22224,-0.05588 -0.43788,0 -0.49328,0.15468c-0.11143,0.16065 0.05541,0.26583 0.32705,0.26583zm0.43788,-12.4655c-0.38247,-0.26614 -0.87636,-0.37124 -1.098,-0.26614c-0.38246,0.21055 -0.32705,0.26614 0.22164,0.42679c0.27164,0.10546 0.82697,0.21057 1.098,0.26011c0.32705,0 0.32705,-0.10543 -0.22164,-0.42076zm-0.04939,1.91148c0.32643,0 0.38246,-0.05559 0.16021,-0.21629c-0.16021,-0.0495 -0.38247,-0.0495 -0.4933,0.05561c-0.05541,0.10509 0.11083,0.21027 0.33309,0.16068zm0.32643,1.21889c-0.77093,0 -0.77093,0.04949 -0.32643,0.47633c0.54869,0.47635 0.7089,0.5319 0.93116,0.21024c0.38244,-0.42051 0.11081,-0.68657 -0.60473,-0.68657zm1.09802,-5.9946c-0.22226,-0.26611 -0.27766,0.21027 -0.16625,0.79174c0.05541,0.37125 0.27706,0.69292 0.38849,0.69292c0.21562,0 0.05541,-1.1693 -0.22224,-1.48466zm1.7575,7.00284c-0.11081,0.04959 0.16684,0.37125 0.49389,0.6374c0.33307,0.26583 0.60409,0.37094 0.60409,0.21024c0,-0.3712 -0.93115,-1.06416 -1.09798,-0.84763zm-1.37506,0.37125c-0.49328,0.37129 -0.21562,1.32397 0.49932,1.4847c0.38246,0.10511 0.98717,0.53195 1.36963,0.95269c0.33307,0.42684 0.60409,0.58786 0.60409,0.42684c0,-0.53194 -2.19538,-3.08081 -2.47304,-2.86424zm2.2514,4.40483c-0.32703,-0.85397 -0.70951,-1.27448 -1.42505,-1.54059c-0.54869,-0.21024 -1.09798,-0.32167 -1.26422,-0.26579c-0.16684,0.05556 0.49328,0.74217 1.43107,1.54024c1.7575,1.37957 1.7575,1.37957 1.2582,0.26614zm2.91694,-8.17222c-0.11083,0 -0.22226,0.21027 -0.22226,0.42051c0,0.26611 0.11143,0.42684 0.22226,0.42684c0.16021,0 0.27164,-0.16073 0.27164,-0.42684c0,-0.21024 -0.11143,-0.42051 -0.27164,-0.42051zm-0.4993,4.34892c0,0.3712 0.93718,0.10513 1.31964,-0.37125c0.54871,-0.79805 0.49328,-1.00832 -0.22224,-1.00832c-0.49328,0 -1.0974,0.74253 -1.0974,1.37957zm1.5973,-11.45721c-0.16684,0.68662 -0.27766,1.26809 -0.22224,1.32398c0.16682,0.21027 0.60472,-1.37954 0.60472,-2.0169c0,-0.26583 -0.16685,0.05589 -0.38247,0.69292zm2.85552,10.71471c-0.27766,0 -0.4933,0.10546 -0.4933,0.31565c0,0.16073 0.16021,0.26616 0.32645,0.26616c0.22224,0 0.43788,-0.10543 0.49389,-0.26616c0.11083,-0.21019 -0.05601,-0.31565 -0.32703,-0.31565zm-0.66014,9.9725c0.32705,0.95908 0.82033,1.85592 1.098,2.07249c0.27766,0.16073 0.82635,0.90322 1.1534,1.64568c0.32705,0.74221 0.66012,1.3237 0.71554,1.3237c0.27102,0 -0.27766,-4.88086 -0.66012,-6.36581c-0.33309,-1.27411 -0.43789,-2.44345 -0.38247,-4.29937c0.04939,-1.37954 0,-2.59841 -0.11081,-2.70352c-0.05542,-0.10513 -0.43788,-0.10513 -0.77095,0c-0.60472,0.21024 -0.66012,0.37125 -0.66012,1.54056c0,0.89685 -0.11084,1.37957 -0.38247,1.58976c-0.77093,0.4764 -0.71553,3.1799 0,5.1965zm-1.59127,-7.10796c-0.11083,-0.79806 -0.22164,-0.90319 -0.82635,-0.90319c-0.71554,0 -0.71554,0.05559 -0.66012,1.16902c0,0.6869 0.11141,1.48495 0.16682,1.8559c0.05542,0.37125 0.27164,0.74246 0.4933,0.79806c0.43786,0.26614 0.93115,-1.58976 0.82635,-2.91979zm-0.82635,5.35719c-0.4933,-0.63708 -0.82635,-1.3237 -0.87576,-1.48466c0,-0.21024 -0.27765,-0.74217 -0.60411,-1.21855c-0.33307,-0.47635 -0.71553,-1.06418 -0.88236,-1.27445c-0.54869,-0.74246 -0.43788,-0.10509 0.16684,1.54027c0.38246,1.1137 1.04199,2.12203 1.81292,2.96961c1.42503,1.43513 1.59128,1.16907 0.38247,-0.53222zm-0.87576,2.60443c0.59809,0 0.54871,-0.05556 -0.27765,-0.90314c-0.54871,-0.53199 -0.93116,-1.11346 -0.93116,-1.37959c0,-0.21022 -0.71554,-0.95878 -1.54188,-1.6454c-0.82035,-0.69291 -1.5913,-1.37952 -1.70211,-1.59004c-0.11143,-0.26583 -0.16684,-0.26583 -0.16684,0.04954c0,0.32172 -0.27104,0.3712 -1.1534,0.21024c-0.60411,-0.10514 -1.0974,-0.10514 -1.0974,-0.04925c0,0.10513 0.22164,0.74221 0.4439,1.37952c0.38247,1.05787 0.54869,1.27448 1.75752,1.69495c0.76493,0.26611 1.97372,0.90317 2.74467,1.37952c0.71554,0.48274 1.59128,0.85365 1.92435,0.85365zm-8.57314,1.80031c0.22224,0 0.54929,-0.10509 0.77093,-0.26606c0.38247,-0.37097 0.05603,-0.37097 -0.65952,0c-0.32705,0.16097 -0.38246,0.2105 -0.11141,0.26606zm-0.60411,-1.32397c0.54871,-0.21626 2.30681,-0.42681 3.90411,-0.42681c3.01573,-0.04954 3.62043,-0.21019 2.4116,-0.53194c-0.38244,-0.10509 -1.2582,-0.37125 -1.97372,-0.63708c-1.26423,-0.47635 -3.84871,-0.31565 -4.11975,0.21634c-0.05601,0.10538 -0.33307,0.16097 -0.6047,0.10538c-0.54871,-0.16098 -1.098,0.26586 -1.26423,1.11346c-0.22224,0.68657 0.16623,0.74246 1.64669,0.16065zm-4.39138,1.21887c0.11083,0.42684 0.66012,0.47635 1.098,0.10509c0.27102,-0.21022 0.27102,-0.31531 0,-0.63703c-0.22224,-0.3157 -0.38246,-0.3157 -0.71553,-0.04954c-0.22224,0.15468 -0.38247,0.42051 -0.38247,0.58147zm-1.75752,3.71184c0.21564,0 0.32646,0.16073 0.21564,0.47638c-0.0494,0.21657 -0.21564,0.42681 -0.32705,0.42681c-0.16623,0 -0.27104,-0.21024 -0.27104,-0.42681c0,-0.25977 0.16021,-0.47638 0.38246,-0.47638z" stroke-width="0" stroke="#0f8bbc" fill="#1fba79"/>
 </g>
</svg>